<svg width="51" height="51" viewBox="0 0 51 51" fill="none" xmlns="http://www.w3.org/2000/svg">
<path d="M48.2506 14.6985C48.0731 14.5937 47.8708 14.5384 47.6647 14.5384C47.4586 14.5384 47.2562 14.5937 47.0787 14.6985L37.899 19.9524V18.0579C37.899 16.0895 37.1171 14.2017 35.7252 12.8098C34.3334 11.4179 32.4456 10.636 30.4772 10.636H5.47717C4.75197 10.636 4.05647 10.9241 3.54368 11.4369C3.03088 11.9497 2.7428 12.6452 2.7428 13.3704V32.1204C2.7428 34.0888 3.52474 35.9765 4.91661 37.3684C6.30849 38.7603 8.19627 39.5422 10.1647 39.5422H35.1647C35.8899 39.5422 36.5854 39.2542 37.0982 38.7414C37.611 38.2286 37.899 37.5331 37.899 36.8079V30.2258L47.0787 35.4797C47.2569 35.5826 47.459 35.6367 47.6647 35.6367C47.8704 35.6367 48.0725 35.5826 48.2506 35.4797C48.4289 35.3768 48.5769 35.2288 48.6797 35.0505C48.7826 34.8722 48.8367 34.6699 48.8365 34.4641V15.7141C48.8367 15.5083 48.7826 15.306 48.6797 15.1277C48.5769 14.9495 48.4289 14.8014 48.2506 14.6985ZM35.5553 36.8079C35.5553 36.9115 35.5141 37.0108 35.4409 37.0841C35.3676 37.1573 35.2683 37.1985 35.1647 37.1985H10.1647C8.81945 37.1933 7.5308 36.6567 6.57958 35.7055C5.62836 34.7542 5.09169 33.4656 5.08655 32.1204V13.3704C5.08655 13.2668 5.1277 13.1674 5.20096 13.0941C5.27422 13.0209 5.37357 12.9797 5.47717 12.9797H30.4772C31.8224 12.9849 33.111 13.5215 34.0623 14.4728C35.0135 15.424 35.5502 16.7126 35.5553 18.0579V36.8079ZM46.4928 32.4524L37.899 27.5305V22.6477L46.4928 17.7258V32.4524Z" fill="#333333"/>
</svg>
