<svg width="33" height="49" viewBox="0 0 33 49" fill="none" xmlns="http://www.w3.org/2000/svg">
<path fill-rule="evenodd" clip-rule="evenodd" d="M30.2897 17.01C30.2897 18.9023 29.4588 21.6874 27.9985 25.0023C26.5681 28.2492 24.6446 31.764 22.697 35.0295C20.7532 38.2884 18.8064 41.264 17.3438 43.4268C17.0555 43.8533 16.7862 44.2478 16.5397 44.6063C16.2932 44.2478 16.0239 43.8533 15.7355 43.4268C14.273 41.264 12.3261 38.2884 10.3823 35.0295C8.4347 31.764 6.51129 28.2492 5.08088 25.0023C3.62054 21.6874 2.78967 18.9023 2.78967 17.01C2.78967 8.63192 9.07841 2.08911 16.5397 2.08911C24.0009 2.08911 30.2897 8.63192 30.2897 17.01ZM32.2897 17.01C32.2897 24.7592 21.4597 41.0273 17.7607 46.3576C16.999 47.4553 16.5397 48.0891 16.5397 48.0891C16.5397 48.0891 16.0804 47.4553 15.3186 46.3576C11.6197 41.0273 0.789673 24.7592 0.789673 17.01C0.789673 7.66484 7.84119 0.0891113 16.5397 0.0891113C25.2382 0.0891113 32.2897 7.66484 32.2897 17.01ZM19.7896 17.3391C19.7896 19.134 18.3345 20.5891 16.5396 20.5891C14.7447 20.5891 13.2896 19.134 13.2896 17.3391C13.2896 15.5442 14.7447 14.0891 16.5396 14.0891C18.3345 14.0891 19.7896 15.5442 19.7896 17.3391ZM21.7896 17.3391C21.7896 20.2386 19.4391 22.5891 16.5396 22.5891C13.6401 22.5891 11.2896 20.2386 11.2896 17.3391C11.2896 14.4396 13.6401 12.0891 16.5396 12.0891C19.4391 12.0891 21.7896 14.4396 21.7896 17.3391Z" fill="#333333"/>
</svg>
