<svg width="51" height="53" viewBox="0 0 51 53" fill="none" xmlns="http://www.w3.org/2000/svg">
<path fill-rule="evenodd" clip-rule="evenodd" d="M50.7897 1.84066L28.8952 11.1458V20.9235H41.2732C44.5869 20.9235 47.2732 23.6098 47.2732 26.9235V46.1781C47.2732 49.4918 44.5869 52.1781 41.2732 52.1781H15.7677C12.454 52.1781 9.76769 49.4918 9.76769 46.1781V26.9235C9.76769 23.6098 12.454 20.9235 15.7677 20.9235H26.8952V12.4113L0.769773 23.099L0 21.2531L50.0074 0L50.7897 1.84066ZM41.2732 22.9235H29.5203V36.8009H45.2732V26.9235C45.2732 24.7144 43.4824 22.9235 41.2732 22.9235ZM15.7677 22.9235H27.5203V36.8009H11.7677V26.9235C11.7677 24.7144 13.5586 22.9235 15.7677 22.9235ZM11.7677 46.1781V38.8009H28.5203H45.2732V46.1781C45.2732 48.3872 43.4824 50.1781 41.2732 50.1781H15.7677C13.5586 50.1781 11.7677 48.3872 11.7677 46.1781Z" fill="#333333"/>
</svg>
