<svg width="52" height="53" viewBox="0 0 52 53" fill="none" xmlns="http://www.w3.org/2000/svg">
<path d="M26 3.80347C26.3694 3.80347 26.7237 3.95021 26.9849 4.21143C27.2461 4.47264 27.3929 4.82692 27.3929 5.19632V7.97461C27.3929 8.34402 27.2461 8.6983 26.9849 8.95951C26.7237 9.22072 26.3694 9.36747 26 9.36747C25.6306 9.36747 25.2763 9.22072 25.0151 8.95951C24.7539 8.6983 24.6072 8.34402 24.6072 7.97461V5.19632C24.6072 4.82692 24.7539 4.47264 25.0151 4.21143C25.2763 3.95021 25.6306 3.80347 26 3.80347ZM26 37.232C27.4633 37.232 28.9123 36.9438 30.2642 36.3838C31.6161 35.8239 32.8445 35.0031 33.8792 33.9684C34.9139 32.9337 35.7347 31.7053 36.2947 30.3534C36.8547 29.0015 37.1429 27.5525 37.1429 26.0892C37.1429 24.6259 36.8547 23.1769 36.2947 21.825C35.7347 20.4731 34.9139 19.2447 33.8792 18.21C32.8445 17.1753 31.6161 16.3545 30.2642 15.7945C28.9123 15.2345 27.4633 14.9463 26 14.9463C23.0447 14.9463 20.2105 16.1203 18.1208 18.21C16.0311 20.2997 14.8572 23.1339 14.8572 26.0892C14.8572 29.0445 16.0311 31.8787 18.1208 33.9684C20.2105 36.0581 23.0447 37.232 26 37.232ZM26 34.4463C24.9025 34.4463 23.8158 34.2302 22.8019 33.8102C21.7879 33.3902 20.8667 32.7746 20.0906 31.9986C19.3146 31.2225 18.699 30.3013 18.279 29.2873C17.859 28.2734 17.6429 27.1867 17.6429 26.0892C17.6429 24.9917 17.859 23.905 18.279 22.891C18.699 21.8771 19.3146 20.9558 20.0906 20.1798C20.8667 19.4038 21.7879 18.7882 22.8019 18.3682C23.8158 17.9482 24.9025 17.732 26 17.732C28.2165 17.732 30.3421 18.6125 31.9094 20.1798C33.4767 21.7471 34.3572 23.8727 34.3572 26.0892C34.3572 28.3056 33.4767 30.4313 31.9094 31.9986C30.3421 33.5658 28.2165 34.4463 26 34.4463ZM46.8929 27.482C47.2623 27.482 47.6166 27.3353 47.8778 27.0741C48.139 26.8129 48.2857 26.4586 48.2857 26.0892C48.2857 25.7198 48.139 25.3655 47.8778 25.1043C47.6166 24.8431 47.2623 24.6963 46.8929 24.6963H44.1146C43.7452 24.6963 43.3909 24.8431 43.1297 25.1043C42.8685 25.3655 42.7217 25.7198 42.7217 26.0892C42.7217 26.4586 42.8685 26.8129 43.1297 27.0741C43.3909 27.3353 43.7452 27.482 44.1146 27.482H46.8929ZM26 42.8109C26.3694 42.8109 26.7237 42.9576 26.9849 43.2189C27.2461 43.4801 27.3929 43.8343 27.3929 44.2038V46.982C27.3929 47.3514 27.2461 47.7057 26.9849 47.9669C26.7237 48.2281 26.3694 48.3749 26 48.3749C25.6306 48.3749 25.2763 48.2281 25.0151 47.9669C24.7539 47.7057 24.6072 47.3514 24.6072 46.982V44.2038C24.6072 43.8343 24.7539 43.4801 25.0151 43.2189C25.2763 42.9576 25.6306 42.8109 26 42.8109ZM7.89287 27.482C8.26228 27.482 8.61656 27.3353 8.87777 27.0741C9.13898 26.8129 9.28573 26.4586 9.28573 26.0892C9.28573 25.7198 9.13898 25.3655 8.87777 25.1043C8.61656 24.8431 8.26228 24.6963 7.89287 24.6963H5.10901C4.7396 24.6963 4.38533 24.8431 4.12411 25.1043C3.8629 25.3655 3.71616 25.7198 3.71616 26.0892C3.71616 26.4586 3.8629 26.8129 4.12411 27.0741C4.38533 27.3353 4.7396 27.482 5.10901 27.482H7.89473H7.89287ZM9.6943 9.78161C9.95546 9.52077 10.3095 9.37426 10.6786 9.37426C11.0477 9.37426 11.4017 9.52077 11.6629 9.78161L14.4486 12.5673C14.6946 12.8314 14.8286 13.1806 14.8222 13.5414C14.8158 13.9023 14.6696 14.2466 14.4145 14.5018C14.1593 14.757 13.815 14.9031 13.4541 14.9095C13.0933 14.9159 12.7441 14.7819 12.48 14.5359L9.6943 11.7502C9.43346 11.489 9.28695 11.135 9.28695 10.7659C9.28695 10.3968 9.43346 10.0428 9.6943 9.78161ZM11.6629 42.393C11.3988 42.6391 11.0496 42.773 10.6888 42.7666C10.3279 42.7603 9.98362 42.6141 9.72843 42.3589C9.47323 42.1037 9.32705 41.7594 9.32069 41.3986C9.31432 41.0377 9.44826 40.6885 9.6943 40.4245L12.48 37.6388C12.7441 37.3927 13.0933 37.2588 13.4541 37.2651C13.815 37.2715 14.1593 37.4177 14.4145 37.6729C14.6696 37.9281 14.8158 38.2724 14.8222 38.6332C14.8286 38.9941 14.6946 39.3433 14.4486 39.6073L11.6629 42.393ZM42.3057 9.78161C42.0446 9.52077 41.6905 9.37426 41.3214 9.37426C40.9523 9.37426 40.5983 9.52077 40.3372 9.78161L37.5514 12.5673C37.4146 12.6948 37.3048 12.8486 37.2287 13.0195C37.1526 13.1903 37.1116 13.3748 37.1083 13.5618C37.105 13.7488 37.1394 13.9346 37.2095 14.108C37.2796 14.2814 37.3838 14.439 37.5161 14.5713C37.6483 14.7035 37.8059 14.8078 37.9793 14.8778C38.1528 14.9479 38.3385 14.9823 38.5256 14.979C38.7126 14.9757 38.897 14.9348 39.0679 14.8586C39.2387 14.7825 39.3925 14.6727 39.52 14.5359L42.3057 11.7502C42.5666 11.489 42.7131 11.135 42.7131 10.7659C42.7131 10.3968 42.5666 10.0428 42.3057 9.78161ZM40.3372 42.3949C40.6012 42.6409 40.9504 42.7749 41.3113 42.7685C41.6721 42.7621 42.0164 42.616 42.2716 42.3608C42.5268 42.1056 42.673 41.7613 42.6793 41.4004C42.6857 41.0396 42.5518 40.6904 42.3057 40.4263L39.52 37.6406C39.256 37.3946 38.9067 37.2606 38.5459 37.267C38.1851 37.2734 37.8408 37.4195 37.5856 37.6747C37.3304 37.9299 37.1842 38.2742 37.1778 38.6351C37.1715 38.9959 37.3054 39.3451 37.5514 39.6092L40.3372 42.3949Z" fill="#333333"/>
</svg>
