<svg width="34" height="34" viewBox="0 0 34 34" fill="none" xmlns="http://www.w3.org/2000/svg">
<path d="M16.175 22.5263C15.5243 22.5263 14.9756 22.3026 14.5288 21.8553C14.0809 21.4079 13.884 20.8816 13.9383 20.2763C14.0196 19.1711 14.2907 18.2105 14.7516 17.3947C15.2125 16.5789 15.9446 15.7368 16.9477 14.8684C18.0593 13.9211 18.9063 13.0984 19.4887 12.4005C20.0721 11.7037 20.3638 10.9079 20.3638 10.0132C20.3638 8.93421 19.9913 8.03947 19.2463 7.32895C18.5001 6.61842 17.4628 6.26316 16.1343 6.26316C15.2668 6.26316 14.5282 6.44053 13.9187 6.79526C13.3082 7.15105 12.8131 7.59211 12.4335 8.11842C12.054 8.64474 11.5866 9 11.0313 9.18421C10.475 9.36842 9.93923 9.35526 9.4241 9.14474C8.80052 8.88158 8.37378 8.44737 8.14387 7.84211C7.91287 7.23684 7.96005 6.67105 8.28539 6.14474C9.07164 4.96053 10.129 3.97368 11.4575 3.18421C12.786 2.39474 14.3449 2 16.1343 2C18.9811 2 21.1707 2.77 22.7031 4.31C24.2344 5.84895 25 7.69737 25 9.85526C25 11.1711 24.7088 12.2963 24.1264 13.2311C23.543 14.1647 22.6277 15.2237 21.3805 16.4079C20.4587 17.25 19.808 17.9342 19.4285 18.4605C19.0489 18.9868 18.7913 19.5921 18.6558 20.2763C18.5473 20.9342 18.2626 21.4737 17.8017 21.8947C17.3408 22.3158 16.7986 22.5263 16.175 22.5263ZM16.1343 32C15.2396 32 14.474 31.6911 13.8374 31.0732C13.1997 30.4542 12.8809 29.7105 12.8809 28.8421C12.8809 27.9737 13.1997 27.23 13.8374 26.6111C14.474 25.9932 15.2396 25.6842 16.1343 25.6842C17.029 25.6842 17.7952 25.9932 18.4329 26.6111C19.0695 27.23 19.3878 27.9737 19.3878 28.8421C19.3878 29.7105 19.0695 30.4542 18.4329 31.0732C17.7952 31.6911 17.029 32 16.1343 32Z" fill="#FCFCFC"/>
</svg>
