<svg width="21" height="21" viewBox="0 0 21 21" fill="none" xmlns="http://www.w3.org/2000/svg">
<path d="M9.594 12.685V12.09C9.594 11.546 9.696 11.036 9.9 10.56C10.1153 10.0727 10.478 9.53433 10.988 8.945C11.3847 8.49167 11.6623 8.10633 11.821 7.789C11.9797 7.46033 12.059 7.11467 12.059 6.752C12.059 6.32133 11.906 5.98133 11.6 5.732C11.294 5.48267 10.8633 5.358 10.308 5.358C9.14067 5.358 8.08667 5.79433 7.146 6.667L6.534 5.324C6.98733 4.882 7.55967 4.53067 8.251 4.27C8.95367 3.998 9.67333 3.862 10.41 3.862C11.43 3.862 12.2517 4.117 12.875 4.627C13.4983 5.12567 13.81 5.783 13.81 6.599C13.81 7.13167 13.691 7.63033 13.453 8.095C13.2263 8.54833 12.824 9.05833 12.246 9.625C11.7133 10.1577 11.3393 10.628 11.124 11.036C10.9087 11.4327 10.7783 11.8293 10.733 12.226L10.665 12.685H9.594ZM9.118 16V13.977H11.141V16H9.118Z" fill="#143D6E"/>
<rect x="0.75" y="0.75" width="19.5" height="19.5" rx="9.75" stroke="#143D6E" stroke-width="1.5"/>
</svg>
