<svg width="83" height="83" viewBox="0 0 83 83" fill="none" xmlns="http://www.w3.org/2000/svg">
<rect width="83" height="83" fill="#143D6E"/>
<path d="M18.52 30.02L19.02 31.18C19.38 31.5 19.7133 31.7333 20.02 31.88C20.3267 32.0133 20.7067 32.08 21.16 32.08C21.8133 32.08 22.3267 31.9467 22.7 31.68C23.0733 31.4 23.26 30.9933 23.26 30.46C23.2467 30.06 23.06 29.7333 22.7 29.48C22.3533 29.2267 21.8067 28.9333 21.06 28.6L20.56 28.38C19.56 27.9 18.78 27.3867 18.22 26.84C17.66 26.2933 17.38 25.62 17.38 24.82C17.38 24.1533 17.5933 23.5867 18.02 23.12C18.4467 22.6533 18.9867 22.3067 19.64 22.08C20.3067 21.8533 20.9867 21.74 21.68 21.74C22.2667 21.74 22.86 21.8067 23.46 21.94C24.06 22.06 24.54 22.2067 24.9 22.38V24.7H23.76L23.3 23.56C22.8333 23.0667 22.3 22.82 21.7 22.82C21.1267 22.82 20.66 22.94 20.3 23.18C19.9533 23.4067 19.78 23.7533 19.78 24.22C19.78 24.5667 19.8933 24.8733 20.12 25.14C20.36 25.3933 20.6267 25.6 20.92 25.76C21.2267 25.92 21.7533 26.18 22.5 26.54C23.1933 26.86 23.74 27.1467 24.14 27.4C24.5533 27.6533 24.9 27.98 25.18 28.38C25.46 28.7667 25.6 29.2467 25.6 29.82C25.6 30.94 25.1667 31.7933 24.3 32.38C23.4333 32.9533 22.3267 33.24 20.98 33.24C20.3667 33.24 19.7333 33.16 19.08 33C18.44 32.8533 17.88 32.6467 17.4 32.38V30.02H18.52ZM29.4306 31.74V19.14L27.7306 18.66V17.6L31.4106 17.12L31.8906 17.36V26.12L31.7906 27.56L35.7106 23.46L34.1306 23.3V22.02H39.3106V23.3L37.6506 23.46L34.6906 26.42L38.5306 31.78L39.7506 31.98V33H34.6106V31.98L35.7906 31.74L33.1506 27.76L31.8106 29.16L31.8706 30.66V31.78L33.1906 31.98V33H27.9306V31.98L29.4306 31.74ZM43.945 16.62C44.4383 16.62 44.8117 16.7533 45.065 17.02C45.3317 17.2733 45.465 17.62 45.465 18.06C45.465 18.5533 45.285 18.96 44.925 19.28C44.565 19.6 44.145 19.76 43.665 19.76C43.2517 19.76 42.8917 19.6267 42.585 19.36C42.2917 19.0933 42.145 18.7467 42.145 18.32C42.145 17.8533 42.3317 17.4533 42.705 17.12C43.0783 16.7867 43.4917 16.62 43.945 16.62ZM45.245 22.04V31.76L46.765 31.98V33H41.305V31.98L42.845 31.76V24.46L41.525 23.5V22.78L44.665 21.84L45.245 22.04Z" fill="#FCFCFC"/>
<path d="M22.62 40.78C23.1667 40.7533 23.7267 40.7867 24.3 40.88C24.8867 40.9733 25.32 41.1 25.6 41.26V43.9H24.36L23.76 42.44C23.4267 42.1867 22.9333 42.06 22.28 42.06C21.4133 42.06 20.7067 42.42 20.16 43.14C19.6267 43.86 19.36 44.8333 19.36 46.06C19.36 47.0467 19.5133 47.8867 19.82 48.58C20.14 49.2733 20.56 49.7933 21.08 50.14C21.6 50.4867 22.1667 50.66 22.78 50.66C23.2867 50.66 23.8067 50.6067 24.34 50.5C24.8733 50.38 25.2733 50.2333 25.54 50.06L25.96 51.04C25.5333 51.4133 24.9533 51.7067 24.22 51.92C23.5 52.12 22.72 52.22 21.88 52.22C20.8533 52.22 19.9667 51.9867 19.22 51.52C18.4733 51.0533 17.9 50.4067 17.5 49.58C17.1133 48.74 16.92 47.7867 16.92 46.72C16.92 45.5467 17.1667 44.52 17.66 43.64C18.1533 42.7467 18.8267 42.0533 19.68 41.56C20.5467 41.0667 21.5267 40.8067 22.62 40.78ZM35.1278 40.74C36.7811 40.74 38.0411 41.2467 38.9078 42.26C39.7745 43.26 40.2078 44.6 40.2078 46.28C40.2078 47.4533 39.9745 48.4933 39.5078 49.4C39.0411 50.2933 38.4011 50.9933 37.5878 51.5C36.7745 51.9933 35.8545 52.24 34.8278 52.24C33.1078 52.24 31.8078 51.7133 30.9278 50.66C30.0478 49.5933 29.6078 48.2067 29.6078 46.5C29.6078 45.3267 29.8545 44.3067 30.3478 43.44C30.8411 42.5733 31.5011 41.9067 32.3278 41.44C33.1678 40.9733 34.1011 40.74 35.1278 40.74ZM34.9278 41.94C33.1278 41.94 32.2278 43.3667 32.2278 46.22C32.2278 47.5267 32.4545 48.6467 32.9078 49.58C33.3611 50.5133 34.0345 50.9867 34.9278 51C35.9011 51.0133 36.5878 50.6267 36.9878 49.84C37.4011 49.0533 37.6078 47.9267 37.6078 46.46C37.6078 45.1133 37.3878 44.0267 36.9478 43.2C36.5211 42.36 35.8478 41.94 34.9278 41.94ZM49.7106 40.74C51.364 40.74 52.624 41.2467 53.4906 42.26C54.3573 43.26 54.7906 44.6 54.7906 46.28C54.7906 47.4533 54.5573 48.4933 54.0906 49.4C53.624 50.2933 52.984 50.9933 52.1706 51.5C51.3573 51.9933 50.4373 52.24 49.4106 52.24C47.6906 52.24 46.3906 51.7133 45.5106 50.66C44.6306 49.5933 44.1906 48.2067 44.1906 46.5C44.1906 45.3267 44.4373 44.3067 44.9306 43.44C45.424 42.5733 46.084 41.9067 46.9106 41.44C47.7506 40.9733 48.684 40.74 49.7106 40.74ZM49.5106 41.94C47.7106 41.94 46.8106 43.3667 46.8106 46.22C46.8106 47.5267 47.0373 48.6467 47.4906 49.58C47.944 50.5133 48.6173 50.9867 49.5106 51C50.484 51.0133 51.1706 50.6267 51.5706 49.84C51.984 49.0533 52.1906 47.9267 52.1906 46.46C52.1906 45.1133 51.9706 44.0267 51.5306 43.2C51.104 42.36 50.4306 41.94 49.5106 41.94ZM60.2734 50.76V38.02L58.8134 37.6V36.54L62.2734 36.12L62.7334 36.32V50.74L64.4734 50.98V52H58.7934V50.98L60.2734 50.76Z" fill="#FCFCFC"/>
<path d="M19.06 67.12C18.62 67.12 18.1667 67.0767 17.7 66.99C17.24 66.9033 16.9133 66.8067 16.72 66.7V64.98H17.26L17.63 66.02C17.7967 66.2133 18.0067 66.3467 18.26 66.42C18.52 66.4933 18.8167 66.53 19.15 66.53C19.53 66.53 19.85 66.4267 20.11 66.22C20.3767 66.0133 20.51 65.7133 20.51 65.32C20.51 65.0067 20.3767 64.73 20.11 64.49C19.85 64.2433 19.47 63.98 18.97 63.7C18.47 63.4333 18.07 63.1967 17.77 62.99C17.47 62.7833 17.2233 62.5433 17.03 62.27C16.8367 61.99 16.74 61.6667 16.74 61.3C16.74 60.88 16.86 60.5233 17.1 60.23C17.3467 59.9367 17.6567 59.7167 18.03 59.57C18.41 59.4233 18.7967 59.35 19.19 59.35C19.59 59.35 19.9867 59.3867 20.38 59.46C20.78 59.5333 21.07 59.6167 21.25 59.71V61.17H20.68L20.28 60.2C20.18 60.1133 20.0267 60.0467 19.82 60C19.62 59.9467 19.4133 59.92 19.2 59.92C18.8667 59.92 18.5667 60.01 18.3 60.19C18.0333 60.3633 17.9 60.63 17.9 60.99C17.9 61.3433 18.0433 61.6467 18.33 61.9C18.6233 62.1533 19.0667 62.4367 19.66 62.75C20.0867 62.9767 20.4433 63.19 20.73 63.39C21.0167 63.59 21.2533 63.8267 21.44 64.1C21.6267 64.3667 21.72 64.6733 21.72 65.02C21.72 65.7067 21.4667 66.23 20.96 66.59C20.46 66.9433 19.8267 67.12 19.06 67.12ZM24.5123 61.54H26.1523V62.25H24.5423V64.48C24.5423 64.9933 24.5523 65.37 24.5723 65.61C24.599 65.85 24.649 66.03 24.7223 66.15C24.8023 66.2633 24.9323 66.32 25.1123 66.32C25.2523 66.32 25.4223 66.2967 25.6223 66.25C25.829 66.2033 25.9723 66.1533 26.0523 66.1L26.2523 66.58C26.0857 66.7467 25.8357 66.88 25.5023 66.98C25.1757 67.0733 24.8623 67.12 24.5623 67.12C24.1357 67.12 23.8257 66.9967 23.6323 66.75C23.439 66.5033 23.3423 66.1133 23.3423 65.58V62.25H22.6023V61.82C22.9157 61.74 23.1223 61.68 23.2223 61.64C23.329 61.5933 23.4223 61.5067 23.5023 61.38C23.6023 61.2067 23.739 60.8233 23.9123 60.23H24.5123V61.54ZM28.4488 65.54C28.6954 65.54 28.8821 65.61 29.0088 65.75C29.1421 65.8833 29.2088 66.06 29.2088 66.28C29.2088 66.5267 29.1154 66.73 28.9288 66.89C28.7488 67.0433 28.5421 67.12 28.3088 67.12C28.1021 67.12 27.9221 67.0533 27.7688 66.92C27.6221 66.7867 27.5488 66.6133 27.5488 66.4C27.5488 66.1667 27.6421 65.9667 27.8288 65.8C28.0154 65.6267 28.2221 65.54 28.4488 65.54ZM33.7084 66.32L34.1384 60.18L33.2084 60.09V59.42H35.8484L37.3884 64.21L37.5884 65.03L37.8084 64.2L39.2784 59.42H41.7084V60.09L40.7984 60.18L41.3284 66.32L42.1384 66.49V67H39.3484V66.49L40.1584 66.32L39.7984 62.06L39.7684 60.26L39.5784 61.02L37.6384 67.08H37.1984L35.4184 61.93C35.2584 61.47 35.075 60.9067 34.8684 60.24L34.8384 61.79L34.6284 66.31L35.5484 66.48V67H32.8684V66.48L33.7084 66.32ZM45.583 61.37C46.4097 61.37 47.0397 61.6233 47.473 62.13C47.9064 62.63 48.123 63.3 48.123 64.14C48.123 64.7267 48.0064 65.2467 47.773 65.7C47.5397 66.1467 47.2197 66.4967 46.813 66.75C46.4064 66.9967 45.9464 67.12 45.433 67.12C44.573 67.12 43.923 66.8567 43.483 66.33C43.043 65.7967 42.823 65.1033 42.823 64.25C42.823 63.6633 42.9464 63.1533 43.193 62.72C43.4397 62.2867 43.7697 61.9533 44.183 61.72C44.603 61.4867 45.0697 61.37 45.583 61.37ZM45.483 61.97C44.583 61.97 44.133 62.6833 44.133 64.11C44.133 64.7633 44.2464 65.3233 44.473 65.79C44.6997 66.2567 45.0364 66.4933 45.483 66.5C45.9697 66.5067 46.313 66.3133 46.513 65.92C46.7197 65.5267 46.823 64.9633 46.823 64.23C46.823 63.5567 46.713 63.0133 46.493 62.6C46.2797 62.18 45.943 61.97 45.483 61.97ZM49.8645 66.38V62.69L49.1745 62.28V61.86L50.6545 61.42L50.9345 61.51V62.34C51.0411 62.12 51.2578 61.9133 51.5845 61.72C51.9178 61.52 52.2245 61.42 52.5045 61.42C52.7578 61.42 52.9211 61.4333 52.9945 61.46V62.66C52.7545 62.54 52.4678 62.48 52.1345 62.48C51.7211 62.48 51.3778 62.57 51.1045 62.75V66.36L52.3945 66.49V67H49.1445V66.49L49.8645 66.38ZM55.0545 58.81C55.3012 58.81 55.4879 58.8767 55.6145 59.01C55.7479 59.1367 55.8145 59.31 55.8145 59.53C55.8145 59.7767 55.7245 59.98 55.5445 60.14C55.3645 60.3 55.1545 60.38 54.9145 60.38C54.7079 60.38 54.5279 60.3133 54.3745 60.18C54.2279 60.0467 54.1545 59.8733 54.1545 59.66C54.1545 59.4267 54.2479 59.2267 54.4345 59.06C54.6212 58.8933 54.8279 58.81 55.0545 58.81ZM55.7045 61.52V66.38L56.4645 66.49V67H53.7345V66.49L54.5045 66.38V62.73L53.8445 62.25V61.89L55.4145 61.42L55.7045 61.52ZM59.042 61.54H60.682V62.25H59.072V64.48C59.072 64.9933 59.082 65.37 59.102 65.61C59.1287 65.85 59.1787 66.03 59.252 66.15C59.332 66.2633 59.462 66.32 59.642 66.32C59.782 66.32 59.952 66.2967 60.152 66.25C60.3587 66.2033 60.502 66.1533 60.582 66.1L60.782 66.58C60.6154 66.7467 60.3654 66.88 60.032 66.98C59.7054 67.0733 59.392 67.12 59.092 67.12C58.6654 67.12 58.3554 66.9967 58.162 66.75C57.9687 66.5033 57.872 66.1133 57.872 65.58V62.25H57.132V61.82C57.4454 61.74 57.652 61.68 57.752 61.64C57.8587 61.5933 57.952 61.5067 58.032 61.38C58.132 61.2067 58.2687 60.8233 58.442 60.23H59.042V61.54ZM66.1984 62.01L63.5384 65.75L63.0084 66.42L65.2884 66.29L65.5984 65.47H66.2384L66.1684 67H61.6584L61.4684 66.57L61.8884 65.95L64.3284 62.56L64.7384 62.1L62.6184 62.18L62.3084 63.11H61.6984V61.54H66.0284L66.1984 62.01Z" fill="#FCFCFC"/>
<rect x="52" y="10" width="15" height="15" fill="#E52800"/>
<path d="M58.073 18.312L56.591 18.388H54.634V16.412H56.591L58.073 16.507L58.016 14.835V12.84H60.03V14.835L59.935 16.507L61.284 16.412H63.393V18.388H61.284L59.935 18.312L60.03 19.965V21.922H58.016V19.965L58.073 18.312Z" fill="white"/>
</svg>
