<svg width="121" height="121" viewBox="0 0 121 121" fill="none" xmlns="http://www.w3.org/2000/svg">
<path fill-rule="evenodd" clip-rule="evenodd" d="M109.83 60.415C109.83 87.7062 87.7062 109.83 60.415 109.83C33.1238 109.83 11 87.7062 11 60.415C11 33.1238 33.1238 11 60.415 11C87.7062 11 109.83 33.1238 109.83 60.415ZM120.83 60.415C120.83 93.7813 93.7813 120.83 60.415 120.83C27.0487 120.83 0 93.7813 0 60.415C0 27.0487 27.0487 0 60.415 0C93.7813 0 120.83 27.0487 120.83 60.415ZM46.5 83.3827L87 60L46.5 36.6173L46.5 83.3827Z" fill="#143D6E"/>
</svg>
